<svg width="72" height="72" viewBox="0 0 72 72" fill="none" xmlns="http://www.w3.org/2000/svg">
<path fill-rule="evenodd" clip-rule="evenodd" d="M23.3549 25.1481C22.9251 25.1481 22.4991 25.0895 22.0849 24.9801C20.9829 24.6205 19.9942 23.9484 19.2439 23.0378C19.0368 22.7917 18.8492 22.5337 18.6851 22.268C18.5092 21.9827 18.3099 21.7131 18.095 21.463L17.8722 21.2012L17.583 21.3926C15.7602 22.5987 14.4382 23.6602 14.1514 23.8905L14.1514 23.8906C14.1148 23.9199 14.0951 23.9358 14.0933 23.9367C13.9761 24.0344 13.8237 24.093 13.6635 24.093H13.6009C13.4212 24.0773 13.257 23.9914 13.1437 23.8546C13.0265 23.7139 12.9718 23.542 12.9913 23.3622C13.0069 23.1824 13.0929 23.0183 13.2297 22.905L13.2455 22.8921C13.4034 22.7625 14.7229 21.6799 16.5983 20.4235L16.7702 20.3102V20.107C16.7858 19.2277 16.8992 18.3484 17.1141 17.4965C17.4111 15.781 18.2904 14.2452 19.5995 13.1432C22.4014 10.8063 26.0318 10.5366 28.5172 10.5366C29.5904 10.5366 30.6395 10.595 31.5809 10.6473L31.7686 10.6578L31.9131 10.6695C32.2609 10.7008 32.6205 10.7164 32.98 10.7164C33.1324 10.7164 33.2887 10.7164 33.4411 10.7086H33.531L33.6131 10.6617C33.7108 10.607 33.8241 10.5796 33.9374 10.5796C34.1055 10.5796 34.2696 10.6421 34.3946 10.7594C34.6096 10.9548 34.6721 11.2635 34.5549 11.5292L34.2735 12.1818L34.2699 12.1901C32.4419 16.4359 30.371 21.246 26.5946 24.0422C25.6645 24.7456 24.5195 25.1403 23.3589 25.152L23.3549 25.1481ZM25.3893 16.3359C25.7088 16.3369 25.9851 16.5633 26.0475 16.8791C26.1178 17.2386 25.8872 17.5942 25.5277 17.6724C23.3589 18.2038 21.3033 19.0675 19.4119 20.2437L19.0407 20.4743L19.3142 20.8182C19.4744 21.0214 19.6386 21.2481 19.8105 21.5138C19.9317 21.717 20.0763 21.9163 20.2287 22.1039C20.7875 22.8229 21.5456 23.3661 22.4132 23.667C22.7492 23.7491 23.058 23.7882 23.3667 23.7882C24.2459 23.7882 25.1057 23.4873 25.7934 22.9441C28.9666 20.5954 30.9049 16.543 32.6166 12.5922L32.8393 12.0802L31.8194 12.0177C30.8619 11.963 29.7365 11.9044 28.6149 11.9044C26.0944 11.9044 22.8899 12.1623 20.4631 14.167C19.4002 15.0736 18.689 16.3281 18.4506 17.6997C18.3763 18.0475 18.3216 18.3406 18.2826 18.6024L18.1497 19.4387L18.8726 18.9971C20.8578 17.7779 23.015 16.8869 25.2854 16.3437C25.2954 16.3437 25.3082 16.3423 25.3229 16.3407C25.3423 16.3385 25.3652 16.336 25.3893 16.3359ZM25.3893 16.3359L25.387 16.3359H25.3909L25.3893 16.3359ZM51.2024 31.4593H50.9406H24.2655C23.8943 31.4593 23.5895 31.1545 23.5895 30.7832C23.5895 30.412 23.8943 30.1072 24.2655 30.1072H50.9288C51.0148 30.1111 51.1164 30.115 51.218 30.115C53.8167 30.115 56.2201 28.5987 57.3416 26.2501C58.6078 23.7334 58.428 20.7009 56.8649 18.3445C55.8566 17.0315 54.4068 16.3476 52.6483 16.3476C52.1481 16.3476 51.6127 16.4023 51.0656 16.5117C49.0921 16.7696 47.6228 18.5516 47.7439 20.5642C47.8963 22.0882 49.0921 23.7061 51.9957 23.7061C52.5037 23.7061 52.9218 23.2919 52.9218 22.7799C52.9218 22.268 52.5076 21.8577 51.9957 21.8577C51.6244 21.8577 51.3196 21.5529 51.3196 21.1816C51.3196 20.8104 51.6244 20.5056 51.9957 20.5056C53.2501 20.5056 54.2701 21.5255 54.2701 22.7799C54.2701 24.0343 53.2501 25.0543 51.9957 25.0543C48.4278 25.0543 46.6146 22.8737 46.3996 20.7127C46.1847 18.028 48.1074 15.5973 50.7764 15.1909L50.8194 15.1831C51.4017 15.0228 52.0035 14.9447 52.6053 14.9447C54.6843 14.9447 56.6226 15.8787 57.9161 17.5043C59.8114 20.2515 60.0576 23.8429 58.5452 26.848C57.1892 29.6538 54.3052 31.4632 51.1985 31.4632L51.2024 31.4593ZM38.619 20.5174C38.619 20.8886 38.9239 21.1934 39.2951 21.1934C39.6663 21.1934 39.9712 20.8886 39.9712 20.5174C39.9712 20.1461 39.6663 19.8413 39.2951 19.8413C38.9239 19.8413 38.619 20.1461 38.619 20.5174ZM59.8503 29.7007C59.8503 30.0719 60.1552 30.3767 60.5264 30.3767C60.8976 30.3767 61.2025 30.0719 61.2025 29.7007C61.2025 29.3294 60.8976 29.0246 60.5264 29.0246C60.1552 29.0246 59.8503 29.3294 59.8503 29.7007ZM48.119 42.4989C48.119 42.8702 48.4238 43.175 48.795 43.175C49.1663 43.175 49.4711 42.8702 49.4711 42.4989C49.4711 42.1277 49.1663 41.8229 48.795 41.8229C48.4238 41.8229 48.119 42.1277 48.119 42.4989ZM43.4647 61.3075C43.0935 61.3075 42.7887 61.0027 42.7887 60.6314C42.7887 60.2602 43.0935 59.9554 43.4647 59.9554C43.836 59.9554 44.1408 60.2602 44.1408 60.6314C44.1408 61.0027 43.836 61.3075 43.4647 61.3075ZM25.3168 48.8062L25.3324 48.7711C25.3324 48.7711 25.2972 48.7945 25.2816 48.8062H25.3168ZM35.864 57.0284C36.4658 57.1535 37.0872 57.2199 37.7203 57.2199H37.9078C39.8813 57.2199 41.7805 56.282 42.9685 54.7306C44.8794 51.96 45.1296 48.3725 43.6133 45.3596C42.2573 42.5616 39.3772 40.7522 36.2665 40.7522C36.2249 40.7522 36.1833 40.7531 36.1404 40.7541C36.0946 40.7551 36.0473 40.7561 35.9969 40.7561H9.3336C8.96235 40.7561 8.65754 41.0609 8.65754 41.4322C8.65754 41.8034 8.96235 42.1083 9.3336 42.1083H35.9734C36.0751 42.1004 36.1727 42.1004 36.2743 42.1004C38.877 42.1004 41.2803 43.6167 42.398 45.9575C43.6719 48.482 43.4883 51.5106 41.9017 53.8983C40.8544 55.18 39.3068 55.9147 37.6499 55.9147C37.1341 55.9147 36.6222 55.8444 36.1259 55.6998C34.1446 55.4223 32.6908 53.6482 32.812 51.6317C32.9644 50.1194 34.1602 48.5054 37.0637 48.5054C37.5718 48.5054 37.986 48.9157 37.986 49.4277C37.986 49.9396 37.5718 50.3538 37.0637 50.3538C36.6925 50.3538 36.3877 50.6586 36.3877 51.0299C36.3877 51.4011 36.6925 51.7059 37.0637 51.7059C38.3182 51.7059 39.3381 50.686 39.3381 49.4316C39.3381 48.1772 38.3182 47.1572 37.0637 47.1572C33.4959 47.1572 31.6865 49.3378 31.4716 51.491C31.2528 54.1874 33.1715 56.6142 35.864 57.0284ZM5.45699 35.4374V36.7895H9.33358C9.70482 36.7895 10.0096 36.4847 10.0096 36.1135C10.0096 35.7422 9.70482 35.4374 9.33358 35.4374H5.45699ZM13.6009 36.7856C13.5111 36.7856 13.4212 36.77 13.3391 36.7348C13.2531 36.6997 13.175 36.6528 13.1086 36.5902C12.9952 36.473 12.9249 36.2972 12.921 36.1135C12.921 36.0777 12.9275 36.0321 12.9346 35.9826L12.9366 35.9689C12.9405 35.9415 12.9522 35.9142 12.964 35.8868L12.9757 35.8634L12.9835 35.8399C12.9952 35.8048 13.0148 35.7696 13.0343 35.7422L13.132 35.625C13.2571 35.5039 13.4251 35.4374 13.6009 35.4374C13.6908 35.4374 13.7768 35.4531 13.8589 35.4882C14.1129 35.5937 14.277 35.8399 14.277 36.1174C14.277 36.2034 14.2575 36.2893 14.2223 36.3714C14.1832 36.4652 14.1363 36.5434 14.0738 36.6059C13.9566 36.7192 13.7846 36.7895 13.6009 36.7895V36.7856ZM57.3689 60.0766C57.4666 60.0805 57.5643 60.0805 57.662 60.0805H57.6659C60.6007 60.0805 63.4183 58.6932 65.2042 56.3641C68.0218 52.6985 68.4047 46.9306 66.1382 42.3349C64.11 38.1418 59.7918 35.4336 55.1376 35.4336C55.0047 35.4336 54.8718 35.4375 54.739 35.4415H54.6842H17.8644C17.4932 35.4415 17.1884 35.7463 17.1884 36.1175C17.1884 36.4888 17.4932 36.7936 17.8644 36.7936H54.6999C54.8601 36.7819 55.0164 36.7819 55.1727 36.7819C59.3151 36.7819 63.1408 39.1969 64.9189 42.9328C66.9627 47.0869 66.6345 52.2687 64.1217 55.5396C63.0002 56.9933 60.9212 58.7284 57.3729 58.7284C56.5756 58.7284 55.7276 58.6385 54.8718 58.4665C51.6127 58.0171 49.2328 55.0941 49.4477 51.7997C49.6939 49.3104 51.6361 46.6492 56.3334 46.6492H56.4467C56.8961 46.6492 57.3377 46.8329 57.6542 47.1494C58.002 47.4972 58.1818 47.9779 58.1505 48.4351C58.1622 48.8884 58.0059 49.3339 57.6972 49.7012C57.3729 50.0412 56.9156 50.2366 56.4467 50.2366H56.3646C55.9934 50.2366 55.6886 50.5414 55.6886 50.9127C55.6886 51.2839 55.9895 51.5887 56.3724 51.5887H56.4467C57.3064 51.5887 58.1388 51.2214 58.7132 50.5922C59.2291 49.9982 59.5104 49.2362 59.5026 48.4312C59.5261 47.5988 59.2056 46.7821 58.6155 46.192C58.045 45.6175 57.283 45.3049 56.474 45.3049H56.3646C50.7334 45.3049 48.3965 48.7321 48.1073 51.663C47.7986 55.6255 50.6357 59.1973 54.5905 59.7913C55.501 59.975 56.435 60.0727 57.3689 60.0766ZM4.39014 30.7675C4.39014 31.1388 4.69495 31.4436 5.0662 31.4436H15.7307C16.102 31.4436 16.4068 31.1388 16.4068 30.7675C16.4068 30.3963 16.102 30.0915 15.7307 30.0915H5.0662C4.69495 30.0915 4.39014 30.3963 4.39014 30.7675Z" fill="#F7F7F7"/>
</svg>
