<svg width="72" height="72" viewBox="0 0 72 72" fill="none" xmlns="http://www.w3.org/2000/svg">
<path fill-rule="evenodd" clip-rule="evenodd" d="M63.0444 44.4979L58.4674 33.6746L56.708 34.4191L61.285 45.2424L63.0444 44.4979ZM59.3648 44.588C58.3224 45.0778 57.9659 45.6421 57.6524 46.1476C57.3741 46.5943 57.1077 47.0215 56.1084 47.5152L47.123 39.6192C47.123 39.6192 47.1112 39.6113 47.1073 39.6074C47.0955 39.5996 47.0877 39.5917 47.0759 39.5839C47.0642 39.5761 47.0563 39.5682 47.0446 39.5604C47.0407 39.5604 47.0328 39.5525 47.0289 39.5525C47.025 39.5486 47.0172 39.5447 47.0093 39.5408C47.0054 39.5408 46.9936 39.5329 46.9897 39.529C45.9787 38.8981 45.1832 39.1803 44.7953 39.4076C43.8862 39.9444 43.459 41.1592 43.5217 42.0291C43.5688 42.7306 43.0946 43.6123 42.3696 44.1687C42.064 44.3999 41.7505 44.5567 41.4409 44.6311C41.7348 43.6201 41.5898 42.66 41.4644 41.8449C41.2646 40.5048 41.1314 39.6192 42.4441 38.6238C42.7654 38.3809 43.0946 38.0909 43.4434 37.7852C44.0939 37.217 44.8266 36.5705 45.8259 35.916C46.7938 35.4458 48.0595 35.7436 49.5251 36.0924C51.3002 36.5117 53.479 37.0289 55.8224 36.2334L59.357 44.5958L59.3648 44.588ZM55.7283 49.1846L46.1786 40.7908C45.8024 40.5636 45.6378 40.6654 45.5673 40.7046C45.2342 40.9045 45.003 41.5236 45.0304 41.9233C45.1127 43.1342 44.4309 44.4861 43.2905 45.36C42.5852 45.9047 41.7936 46.1868 41.0295 46.1868C40.7003 46.1868 40.3751 46.1359 40.0655 46.0301C39.8421 45.9556 39.6697 45.7832 39.5913 45.5637C39.513 45.3443 39.5443 45.1013 39.6697 44.9054C40.2693 43.9806 40.136 43.0911 39.9793 42.0644C39.7677 40.6772 39.509 38.953 41.5389 37.413C41.6094 37.3581 41.6839 37.2954 41.7623 37.2366C41.727 37.2366 41.6839 37.2445 41.6408 37.2484C40.6964 37.3268 39.3092 37.4404 37.6359 36.3706L32.816 44.349C33.4939 44.5135 33.9681 44.7369 34.2972 45.0504H34.3012C34.7479 44.5371 35.3749 44.2314 36.0567 44.1883C36.7425 44.1452 37.3969 44.3686 37.9102 44.8153C38.4275 45.2659 38.7136 45.8812 38.7684 46.5121C38.7841 46.5121 38.7998 46.5081 38.8194 46.5081C39.5012 46.465 40.1595 46.6884 40.6729 47.1351C41.39 47.766 41.6643 48.7104 41.484 49.5843C41.9621 49.6548 42.4128 49.8625 42.785 50.1877C43.2944 50.6384 43.6001 51.2615 43.6471 51.9433C43.6785 52.437 43.5688 52.919 43.3376 53.3383C43.7177 53.4324 44.0899 53.6166 44.4073 53.8909C44.9128 54.3337 45.2107 54.9489 45.2538 55.619C45.2851 56.0618 45.1989 56.4929 45.0069 56.8808C45.5712 57.2139 46.0414 57.1786 46.4059 56.7593C46.786 56.3243 46.7389 55.6621 46.3079 55.282L44.7796 53.9379C44.4661 53.6636 44.4348 53.1855 44.713 52.872C44.9873 52.5585 45.4654 52.5272 45.775 52.8015L47.3071 54.1456L48.1536 54.894C48.3652 55.0782 48.6316 55.1683 48.9099 55.1488C49.192 55.1331 49.4467 55.0038 49.6309 54.7961C50.0071 54.3611 49.964 53.6989 49.5329 53.3187L45.7828 50.0232C45.4732 49.7489 45.4419 49.2708 45.7162 48.9573C45.9905 48.6438 46.4686 48.6124 46.786 48.8868L50.5361 52.1823L51.3394 52.8916C51.7744 53.2717 52.4406 53.2286 52.8168 52.7976C53.0049 52.5899 53.0911 52.3195 53.0754 52.0413C53.0597 51.763 52.9304 51.5044 52.7227 51.3242L48.3064 47.4408C47.9929 47.1665 47.9616 46.6884 48.2359 46.3749C48.5141 46.0614 48.9882 46.0301 49.3057 46.3083L53.722 50.1877L54.3568 50.7442C54.7918 51.1243 55.4579 51.0812 55.8341 50.6501C56.2181 50.2191 56.179 49.5568 55.744 49.1767L55.7283 49.1846ZM43.2905 56.677C42.9222 57.0924 42.2834 57.1355 41.872 56.7672C41.4527 56.3988 41.4135 55.764 41.7779 55.3447L41.8563 55.2546C41.9112 55.184 41.9699 55.1213 42.0209 55.0704C42.2168 54.8784 42.4755 54.7765 42.7341 54.7765C42.9731 54.7765 43.2082 54.8588 43.4003 55.0273C43.5962 55.2036 43.7216 55.4505 43.7333 55.717C43.7451 55.9834 43.6628 56.246 43.4865 56.4458L43.2944 56.6731L43.2905 56.677ZM40.5553 54.3023C40.1752 54.7373 39.509 54.7765 39.0741 54.3964C38.8664 54.2122 38.7449 53.9575 38.7214 53.6753C38.7057 53.3971 38.7919 53.1267 38.98 52.919L40.3006 51.4182C40.4809 51.2105 40.7395 51.0851 41.0177 51.0655C41.0412 51.0655 41.0647 51.0655 41.0883 51.0655C41.343 51.0655 41.582 51.1557 41.774 51.3242C41.9817 51.5083 42.1071 51.763 42.1267 52.0452C42.1424 52.3273 42.0562 52.5938 41.8681 52.8015L40.5514 54.3023H40.5553ZM37.8475 51.9237C37.4674 52.3587 36.8052 52.3979 36.3702 52.0178C36.1586 51.8336 36.0371 51.5789 36.0175 51.2967C35.9979 51.0185 36.0881 50.7481 36.2722 50.5404L38.1845 48.3617C38.3726 48.154 38.6234 48.0286 38.9016 48.009C38.9252 48.009 38.9487 48.009 38.9722 48.009C39.2269 48.009 39.4659 48.0991 39.6579 48.2676C40.0929 48.6477 40.136 49.31 39.7559 49.7449L37.8436 51.9237H37.8475ZM35.0927 49.5999C34.7126 50.0349 34.0504 50.0741 33.6154 49.694C33.1804 49.3139 33.1373 48.6516 33.5174 48.2167L35.4297 46.0379C35.61 45.8302 35.8686 45.7048 36.1468 45.6852C36.1704 45.6852 36.1939 45.6852 36.2174 45.6852C36.4721 45.6852 36.7111 45.7754 36.9031 45.9439C37.3381 46.324 37.3773 46.9862 37.0011 47.4212L35.0888 49.5999H35.0927ZM36.9188 34.619L30.8449 44.6742L29.2148 43.6867L35.2847 33.6315L36.9188 34.619ZM64.5492 45.1092C64.4277 45.4148 64.1926 45.6539 63.8869 45.7793L61.6063 46.7433C61.4495 46.8099 61.2928 46.8412 61.1321 46.8412C60.654 46.8412 60.1995 46.5591 59.9957 46.0888L59.9487 45.9752C59.357 46.2613 59.1728 46.5512 58.9338 46.9392C58.6242 47.4329 58.2558 48.0207 57.2096 48.6281C57.7817 49.5568 57.7111 50.7912 56.9509 51.6533C56.4493 52.2294 55.7401 52.5233 55.0308 52.5233C54.8662 52.5233 54.7055 52.5076 54.5449 52.4762C54.4783 52.9661 54.2706 53.4245 53.9336 53.8047C53.432 54.3807 52.7266 54.6707 52.0134 54.6707C51.7862 54.6707 51.5589 54.6393 51.3355 54.5805C51.2532 55.0194 51.0612 55.4387 50.7477 55.7992C50.301 56.3087 49.674 56.6182 48.9882 56.6613C48.9334 56.6613 48.8746 56.6653 48.8197 56.6653C48.5768 56.6653 48.3338 56.63 48.1026 56.5634C48.0203 56.9944 47.8283 57.4059 47.5187 57.7586C47.0132 58.3385 46.3823 58.6246 45.7083 58.6246C45.1558 58.6246 44.5798 58.4287 44.0076 58.0446C43.5688 58.362 43.0476 58.5227 42.5264 58.5227C41.9386 58.5227 41.3469 58.3189 40.8649 57.8996C40.3398 57.4372 40.0537 56.7985 40.0185 56.1519C39.9323 56.1598 39.8421 56.1676 39.7598 56.1676C39.1603 56.1676 38.5568 55.9599 38.0709 55.5328C37.5615 55.0861 37.2558 54.463 37.2088 53.7811C37.1578 53.7811 37.1069 53.789 37.0481 53.789C36.4486 53.789 35.849 53.5813 35.367 53.1542C34.8654 52.7153 34.5676 52.1157 34.5088 51.4574C34.4383 51.4652 34.3639 51.4691 34.2933 51.4691C33.6938 51.4691 33.0903 51.2615 32.6044 50.8343C31.5463 49.9056 31.4445 48.2833 32.3732 47.2253L33.2745 46.1946C33.1412 46.0301 32.8199 45.8655 31.9735 45.7166C31.7423 46.0888 31.3387 46.2965 30.9311 46.2965C30.7156 46.2965 30.4962 46.2417 30.2963 46.1202L28.1763 44.8388C27.8981 44.6703 27.6982 44.3999 27.6199 44.0825C27.5415 43.7612 27.5964 43.432 27.7609 43.1538L34.1287 32.6126C34.2972 32.3305 34.5676 32.1345 34.885 32.0562C35.2064 31.9778 35.5355 32.0287 35.8138 32.1972L37.9337 33.4786C38.212 33.6471 38.4079 33.9175 38.4902 34.2349C38.5568 34.521 38.5255 34.8149 38.3961 35.0735C39.6501 35.8964 40.6298 35.8181 41.4997 35.7436C42.0797 35.6966 42.7066 35.6457 43.2631 35.9356C43.7647 35.5203 44.3407 35.0696 45.0343 34.619C45.0539 34.6033 45.0814 34.5915 45.1049 34.5759C46.5704 33.8313 48.1732 34.2075 49.8739 34.6111C51.5824 35.0147 53.3419 35.434 55.2306 34.8267L55.1954 34.7444C54.9328 34.1213 55.2267 33.3963 55.8498 33.1338L58.1304 32.1698C58.4283 32.0405 58.7653 32.0405 59.0709 32.162C59.3766 32.2835 59.6117 32.5186 59.741 32.8203L64.5335 44.1648C64.6628 44.4665 64.6628 44.7996 64.5413 45.1053L64.5492 45.1092ZM66.101 45.3169C66.101 56.3322 57.139 65.2941 46.1198 65.2941C35.1006 65.2941 26.1386 56.3322 26.1386 45.3169C26.1386 34.3016 35.1006 25.3396 46.1198 25.3396C57.139 25.3396 66.101 34.3016 66.101 45.3169ZM35.563 64.0284C29.0423 60.3331 24.6339 53.3305 24.6339 45.3169C24.6339 34.1487 33.1961 24.9438 44.1017 23.925V15.0375C44.1017 13.3094 42.691 11.9065 40.9707 11.9065H37.393V20.0573C37.393 20.3355 37.2441 20.5902 36.9972 20.7234C36.7542 20.8528 36.4564 20.841 36.2213 20.6882L31.417 17.5219L26.6128 20.6882C26.4835 20.7705 26.3385 20.8136 26.1935 20.8136C26.072 20.8136 25.9466 20.7822 25.8369 20.7234C25.59 20.5941 25.4333 20.3355 25.4333 20.0573V11.9065H9.03373C7.30561 11.9065 5.90273 13.3094 5.90273 15.0375V60.8974C5.90273 62.6255 7.30561 64.0284 9.03373 64.0284H35.563ZM26.9498 18.6544V11.9065H35.8804V18.6544L31.8363 15.9858C31.5816 15.8212 31.2525 15.8212 31.0017 15.9858L26.9498 18.6544ZM11.4946 10.3939V9.91191C11.4946 8.18378 12.8975 6.78091 14.6256 6.78091H46.5626C48.2868 6.78091 49.6936 8.1877 49.6936 9.91191V24.1288C48.5258 23.9328 47.3346 23.8309 46.1159 23.8309C45.9474 23.8309 45.775 23.8309 45.6104 23.8388V15.0414C45.6104 12.4825 43.5256 10.3978 40.9668 10.3978H11.4946V10.3939ZM67.6096 45.3169C67.6096 57.1669 57.9659 66.8067 46.1198 66.8067C43.5727 66.8067 41.1196 66.36 38.8429 65.5371C38.8311 65.5371 38.8272 65.5371 38.8194 65.5371H9.03373C6.47486 65.5371 4.39014 63.4524 4.39014 60.8935V15.0375C4.39014 12.4786 6.47486 10.3939 9.03373 10.3939H9.98204V9.91191C9.98596 7.34911 12.0668 5.26831 14.6296 5.26831H46.5665C49.1254 5.26831 51.2101 7.35303 51.2101 9.91191V24.4383C60.6109 26.7307 67.6136 35.2224 67.6136 45.3169H67.6096ZM10.1231 26.6837H32.4516C32.8709 26.6837 33.2039 26.3467 33.2039 25.9274C33.2039 25.5081 32.8709 25.1711 32.4516 25.1711H10.1231C9.70382 25.1711 9.36682 25.5081 9.36682 25.9274C9.36682 26.3467 9.70774 26.6837 10.1231 26.6837ZM10.1231 34.7091C9.70382 34.7091 9.36682 34.3721 9.36682 33.9528C9.36682 33.5335 9.70774 33.1965 10.1231 33.1965H25.2961C25.7076 33.1965 26.0485 33.5335 26.0485 33.9528C26.0485 34.3721 25.7076 34.7091 25.2961 34.7091H10.1231ZM10.1231 42.7345C9.70382 42.7345 9.36682 42.3975 9.36682 41.9782C9.36682 41.5589 9.70774 41.2219 10.1231 41.2219H22.6314C23.0507 41.2219 23.3877 41.5589 23.3877 41.9782C23.3877 42.3975 23.0468 42.7345 22.6314 42.7345H10.1231ZM23.615 50.0075C23.615 50.4229 23.2819 50.7638 22.8626 50.7638H10.1231C9.70382 50.7638 9.36682 50.4268 9.36682 50.0075C9.36682 49.5882 9.70774 49.2512 10.1231 49.2512H22.8626C23.2819 49.2512 23.615 49.5882 23.615 50.0075Z" fill="#F7F7F7"/>
</svg>
