<svg width="72" height="72" viewBox="0 0 72 72" fill="none" xmlns="http://www.w3.org/2000/svg">
<path fill-rule="evenodd" clip-rule="evenodd" d="M49.73 4.69437C49.9746 4.94514 53.5702 8.6307 57.2177 13.8732L57.2136 13.8691C62.2383 21.0819 64.7835 27.4613 64.7835 32.8308C64.7835 41.23 58.1906 48.1144 49.9064 48.5782C48.8883 59.3214 39.8569 67.6098 28.9536 67.6098C17.3442 67.6098 7.90234 58.1679 7.90234 46.5585C7.90234 39.3457 11.3384 30.8029 18.1119 21.1763C23.1161 14.0579 28.2024 8.9511 28.2516 8.90183C28.4364 8.713 28.6909 8.61037 28.9495 8.61037C29.2081 8.61037 29.4627 8.7171 29.6474 8.90183C29.6884 8.94288 33.5555 12.8264 37.8495 18.5161C38.7157 17.0095 39.7009 15.4619 40.8093 13.8732C44.4607 8.63086 48.0563 4.94537 48.3011 4.69439L48.3095 4.68583C48.4983 4.49699 48.7487 4.39026 49.0156 4.39026C49.2824 4.39026 49.5369 4.49699 49.7216 4.68583L49.73 4.69437ZM9.88103 46.5585C9.88103 57.0759 18.4362 65.6311 28.9536 65.6311C38.7691 65.6311 46.9137 58.2131 47.9195 48.5659C39.7338 47.9994 33.2435 41.1602 33.2435 32.8308C33.2435 29.1526 34.4422 24.9982 36.8109 20.425C33.4693 15.9176 30.3124 12.4651 28.9536 11.0283C27.406 12.6622 23.5389 16.9028 19.7129 22.3421C15.226 28.7216 9.88103 38.0978 9.88103 46.5585ZM35.2222 32.8308C35.2222 40.4377 41.4087 46.6242 49.0156 46.6242C56.6224 46.6242 62.8089 40.4377 62.8089 32.8308C62.8089 22.4694 51.922 9.97328 49.0156 6.82052C46.1091 9.97328 35.2222 22.4735 35.2222 32.8308ZM42.9523 51.5094C43.137 50.9921 43.7036 50.7253 44.2167 50.9059H44.2126C44.7299 51.0906 44.9967 51.653 44.8161 52.1703C42.8538 57.7082 38.0631 61.879 32.3158 63.049C32.2502 63.0613 32.1845 63.0695 32.1188 63.0695C31.659 63.0695 31.2444 62.7452 31.15 62.2772C31.0391 61.7435 31.384 61.2222 31.9217 61.1113C36.9916 60.0768 41.2199 56.3986 42.9523 51.5094ZM27.9643 61.3741C27.2993 61.3289 26.6342 61.2427 25.9856 61.1072C25.452 60.9964 24.9265 61.3453 24.8198 61.879C24.7089 62.4168 25.0579 62.9381 25.5915 63.0449C26.3264 63.1967 27.0817 63.2953 27.8371 63.3445H27.9027C28.42 63.3445 28.8551 62.9422 28.888 62.4209C28.9249 61.8749 28.5103 61.4028 27.9643 61.3699V61.3741ZM58.5846 32.8308C58.5846 32.2848 59.028 31.8414 59.574 31.8414C60.1199 31.8414 60.5633 32.2848 60.5633 32.8308C60.5633 39.1979 55.3826 44.3786 49.0155 44.3786C48.4695 44.3786 48.0261 43.9352 48.0261 43.3893C48.0261 42.8433 48.4695 42.3999 49.0155 42.3999C54.2906 42.3999 58.5846 38.1059 58.5846 32.8308Z" fill="#F7F7F7"/>
</svg>
